<?xml version="1.0" encoding="iso-8859-1"?>
<!-- Uploaded to: SVG Repo, www.svgrepo.com, Generator: SVG Repo Mixer Tools -->
<!DOCTYPE svg PUBLIC "-//W3C//DTD SVG 1.1//EN" "http://www.w3.org/Graphics/SVG/1.1/DTD/svg11.dtd">
<svg fill="#000000" height="800px" width="800px" version="1.1" id="Capa_1" xmlns="http://www.w3.org/2000/svg" xmlns:xlink="http://www.w3.org/1999/xlink" 
	 viewBox="0 0 462.876 462.876" xml:space="preserve">
<g>
	<path id="XMLID_99_" d="M430.561,364.517c-6.75,6.735-18.759,6.72-25.479,0c-18.396-18.397-48.124-18.683-66.854-0.828
		l-0.858,0.836c-4.249,4.241-10.081,5.598-15.611,4.701l-5.634-45.089c14.571,2.613,30.104-1.446,41.541-12.349l0.859-0.836
		c3.39-3.39,7.91-5.258,12.7-5.258c4.807,0,9.327,1.876,12.732,5.273c17.9,17.93,49.797,17.93,67.727,0
		c5.833-5.839,5.833-15.293-0.014-21.118c-5.846-5.846-15.323-5.822-21.109,0.008c-6.75,6.729-18.759,6.729-25.479,0
		c-18.396-18.39-48.124-18.683-66.854-0.828l-0.858,0.836c-7.021,7.007-18.457,7.015-25.479-0.008
		c-0.016-0.014-0.045-0.029-0.06-0.045l-21.576-172.626c-0.904-7.231-7.053-12.656-14.344-12.656h-88.959
		c-7.292,0-13.438,5.425-14.343,12.656L151.032,289.82c-0.016,0.016-0.045,0.029-0.061,0.045
		c-6.795,6.803-18.683,6.766-25.448,0.008c-18.683-18.683-49.075-18.683-67.728-0.016c-6.796,6.781-18.653,6.811-25.479,0
		c-5.847-5.83-15.279-5.83-21.126,0c-5.83,5.832-5.83,15.279,0,21.11c18.081,18.11,49.647,18.081,67.729,0
		c3.405-3.397,7.926-5.273,12.732-5.273c4.806,0,9.342,1.884,12.747,5.296c9.056,9.032,21.063,14.013,33.84,14.013
		c0.016,0,0.016,0,0.016,0c2.878,0,5.711-0.339,8.483-0.836l-5.621,44.907c-5.574,0.867-11.496-0.444-15.594-4.542
		c-18.683-18.685-49.075-18.685-67.728-0.016c-6.796,6.787-18.653,6.803-25.479,0c-5.847-5.83-15.279-5.83-21.126,0
		c-5.83,5.831-5.83,15.278,0,21.11c18.081,18.11,49.647,18.079,67.729,0c3.405-3.399,7.926-5.273,12.732-5.273
		c4.806,0,9.342,1.882,12.747,5.295c8.829,8.807,20.491,13.681,32.907,13.923l-5.877,47.063c-0.513,4.113,0.753,8.248,3.496,11.353
		c2.742,3.111,6.69,4.889,10.832,4.889h171.347c4.143,0,8.091-1.777,10.833-4.889c2.743-3.104,4.008-7.239,3.496-11.353
		l-5.892-47.123c11.602-0.212,23.145-4.498,32.124-13.064l0.859-0.836c3.39-3.39,7.91-5.258,12.7-5.258
		c4.807,0,9.327,1.874,12.732,5.273c17.9,17.93,49.797,17.93,67.727,0c5.833-5.84,5.833-15.293-0.014-21.118
		C445.825,358.655,436.347,358.694,430.561,364.517z M189.408,163.315h7.534h68.979h7.533l5.59,44.795h-7.519h-80.189h-7.518
		L189.408,163.315z M178.213,252.905h7.534h91.369h7.533l5.605,44.795h-7.534H180.141h-7.532L178.213,252.905z M293.93,387.291
		H168.932h-7.518l5.605-44.794h7.518h113.788h7.519l5.603,44.794H293.93z"/>
	<path id="XMLID_104_" d="M182.945,91.324h96.973c5.26,0,9.522-4.257,9.522-9.515C289.44,49.775,263.464,0,231.432,0
		c-32.034,0-58.01,49.775-58.01,81.809C173.423,87.067,177.686,91.324,182.945,91.324z M217.6,53.037
		c0-7.647,6.191-13.84,13.832-13.84c7.654,0,13.846,6.201,13.846,13.84v23.596c0,1.152-0.934,2.08-2.078,2.08h-23.521
		c-1.145,0-2.078-0.927-2.078-2.08V53.037z"/>
	<path id="XMLID_107_" d="M310.022,57.234c0.753,0,1.521-0.068,2.29-0.227l77.19-15.429c6.252-1.25,10.32-7.344,9.071-13.613
		c-1.251-6.267-7.385-10.419-13.621-9.078l-77.191,15.429c-6.253,1.251-10.32,7.346-9.07,13.615
		C299.792,53.429,304.629,57.234,310.022,57.234z"/>
	<path id="XMLID_108_" d="M307.761,102.669l77.191,15.429c0.768,0.159,1.537,0.227,2.29,0.227c5.393,0,10.23-3.805,11.331-9.305
		c1.249-6.267-2.819-12.362-9.071-13.613l-77.19-15.429c-6.252-1.317-12.37,2.81-13.621,9.079
		C297.441,95.323,301.508,101.419,307.761,102.669z"/>
	<path id="XMLID_109_" d="M73.359,41.578l77.191,15.429c0.769,0.159,1.536,0.227,2.289,0.227c5.395,0,10.231-3.805,11.331-9.304
		c1.25-6.269-2.817-12.363-9.07-13.615L77.911,18.887c-6.254-1.333-12.371,2.811-13.622,9.078
		C63.039,34.234,67.107,40.328,73.359,41.578z"/>
	<path id="XMLID_110_" d="M75.62,118.325c0.754,0,1.522-0.068,2.291-0.227l77.189-15.429c6.253-1.249,10.32-7.346,9.07-13.613
		c-1.251-6.269-7.383-10.404-13.62-9.079L73.359,95.407c-6.252,1.251-10.32,7.346-9.07,13.613
		C65.388,114.52,70.225,118.325,75.62,118.325z"/>
</g>
</svg>